<svg width="31" height="26" viewBox="0 0 31 26" fill="none" xmlns="http://www.w3.org/2000/svg">
<path d="M24.2753 19.6C20.826 17.6 21.6376 16.1 24.4782 14.7C25.9999 14 29.3478 11.3 30.6666 12.2L24.2753 19.6ZM21.942 22.1C19.913 22 17.5796 21.7 15.5507 22.2C16.768 22.5 19.8115 23.4 16.9709 24.1C17.9854 25.5 19.6086 25.4 20.6231 24.2C20.2173 24 19.913 23.7 19.6086 23.5C20.7246 23.2 21.7391 22.6 21.942 22.1ZM23.1593 20.5C22.2463 19.7 21.2318 19.7 20.4202 20.5C19.2028 18.4 14.942 19.1 12.913 18.8C14.0289 21.4 22.6521 21.9 23.1593 20.5ZM16.2608 18.3C14.6376 17.8 9.36225 17.9 12.8115 16.5C13.9275 16.1 19.6086 16.6 16.2608 18.3ZM18.2898 15.3C17.7825 14.2 18.6956 12.9 20.0144 13.9C21.2318 14.7 19.4057 15.9 18.2898 15.3ZM15.3478 15.4C13.0144 16.1 9.97094 14.6 13.7246 13.9C16.0579 13.4 18.4927 14.4 15.3478 15.4C15.4492 15.4 15.2463 15.4 15.3478 15.4ZM12.7101 9.19999C12.2028 10.8 11.1883 11.1 11.2898 9.19999C11.3912 6.89999 12.913 7.49999 14.5362 6.59999C15.855 5.89999 16.5651 3.19999 18.8985 4.79999C19.913 5.49999 21.1304 4.89999 21.4347 5.99999C21.4347 5.89999 18.4927 12.7 20.1159 12.7C16.8695 12.7 18.2898 8.89999 19.5072 6.29999C18.2898 6.89999 16.3622 10.6 17.9854 11.3C17.1738 12.4 14.5362 13.9 13.2173 12.8C12.1014 11.8 12.7101 10.5 12.7101 9.19999ZM8.6521 12C2.97094 12 6.82602 3.39999 8.75355 3.89999C10.9854 4.59999 10.6811 12.1 8.6521 12ZM2.36225 3.79999C-0.275435 3.69999 0.84051 1.19999 2.6666 0.699987C4.39123 0.199987 7.94196 1.79999 9.15935 2.89999C7.33326 3.49999 4.99993 3.39999 2.97094 3.49999C2.76805 1.49999 2.2608 2.19999 2.36225 3.79999Z" fill="#DC6243"/>
</svg>
