<svg width="68" height="55" viewBox="0 0 68 55" fill="none" xmlns="http://www.w3.org/2000/svg">
<path d="M63.0145 3.6V1.2H65.1449L63.0145 3.6ZM13.1014 13C13.2029 13.1 15.5362 10.6 19.2898 8.1C22.7391 5.8 28.0145 3.2 33.8985 3.2C39.7826 3.2 45.1594 5.9 48.6087 8.2C52.3623 10.6 54.6956 13 54.7971 13.1L52.2609 16.1C47.6956 16.7 44.4493 20 39.9855 19.3C37.7536 18.9 37.6522 17.7 37.0435 16.4C36.5362 15.4 35.7246 15.6 34.7101 15.2C33.7971 14.8 33.1884 14.1 31.2609 14.5C29.6377 14.9 29.4348 17.4 27.3043 17.3C26.1884 17.2 26.0869 15.7 24.4638 13.7C20.3043 8.8 16.5107 9.41045 13.873 13.9104L13.1014 13ZM4.5797 1.2V3.1L2.95651 1.2H4.5797ZM59.2609 1.2H62.5072V4.2L59.2609 8V1.2ZM55.1014 12.6V1.2H58.6522V8.6L55.1014 12.6ZM54.5942 2.2V12.1C53.4783 11 52.2609 10 50.942 9.1L54.5942 2.2ZM50.4348 1.9V8.7C49.9275 8.4 49.5217 8 48.913 7.7C48.2029 7.3 47.4927 6.8 46.6812 6.4L50.4348 1.9ZM45.971 1.7V6C44.9565 5.5 43.8406 5 42.8261 4.5L45.971 1.7ZM46.5797 1.2H50.3333L46.5797 5.8V1.2ZM50.942 1.2H54.5942L50.942 8.3V1.2ZM42.0145 1.2H45.971L42.4203 4.3C42.3188 4.3 42.2174 4.2 42.1159 4.2L42.0145 1.2ZM41.5072 1.6V4C40.4927 3.6 39.4783 3.3 38.3623 3.1L41.5072 1.6ZM37.2464 1.6V2.9C36.5362 2.8 35.8261 2.7 35.0145 2.6L37.2464 1.6ZM30.3478 1.6L32.5797 2.6C31.7681 2.6 31.058 2.7 30.3478 2.9V1.6ZM26.1884 1.6L29.3333 3.1C28.2174 3.3 27.2029 3.6 26.1884 4V1.6ZM29.8406 2.8L26.4927 1.2H29.8406V2.8ZM33.3913 2.4L30.5507 1.1H33.3913V2.4ZM34.1014 1.2H37.0435L34.1014 2.5V1.2ZM37.8551 1.2H41.1014L37.8551 2.8V1.2ZM25.2754 4.3L21.7246 1.2H25.6812V4.2L25.2754 4.3ZM21.6232 1.7L24.7681 4.4C23.6522 4.8 22.6377 5.3 21.6232 5.9V1.7ZM17.2609 1.9L20.913 6.4C19.5942 7.1 18.3768 7.9 17.2609 8.8V1.9ZM13 2.2L16.6522 9.2C15.3333 10.2 14.1159 11.2 13 12.4V2.2ZM16.7536 8.2L13.1014 1.1H16.7536V8.2ZM21.1159 5.7L17.3623 1.1H21.1159V5.7ZM8.33332 7.5L5.08695 3.7V1.2H8.33332V7.5ZM8.94202 1.2H12.4927V12.4L8.94202 8.2V1.2ZM0.521729 0V14.6L34 54.5L67.4783 15V0H0.521729Z" fill="#491213"/>
</svg>
