<svg width="66" height="37" viewBox="0 0 66 37" fill="none" xmlns="http://www.w3.org/2000/svg">
<path d="M14.8406 12.9C15.145 13.3 15.4493 13.7 15.3479 14.3C15.3479 14.7 14.7392 15.3 15.145 15.5L16.6667 13.7C16.2609 13.6 13.116 9.89999 13.116 9.49999L10.9856 10.6C11.087 11 11.7971 10.6 12.2029 10.6C12.7102 10.6 13.116 11 13.5218 11.3C12.4058 12.2 9.66671 14.6 9.36237 14.6C9.26092 14.6 8.65222 14.2 8.65222 14.6C8.65222 14.8 9.26092 15.3 9.36237 15.4L10.7827 17.1C11.1885 16.9 10.6812 16.6 10.8841 16.3C10.9856 16.1 14.1305 13.6 14.8406 12.9ZM11.3914 8.39999C11.6957 8.29999 11.7971 8.69999 12 8.39999L10.3769 6.49999C10.174 6.19999 9.86961 5.89999 9.86961 6.49999C9.97106 6.89999 5.81164 10.2 5.60874 10.3C5.30439 10.4 5.10149 9.99999 4.8986 10.4C5.40584 11 5.81164 11.5 6.31889 12.1C6.52179 12.3 6.62323 12.5 6.82613 12.7C7.02903 12.9 6.92758 12.3 6.92758 12.3C6.82613 12 7.23193 11.7 7.53628 11.5C8.55077 10.5 11.087 8.39999 11.3914 8.39999ZM5.60874 7.79999C4.4928 8.09999 3.17396 7.69999 2.86961 6.49999C2.46381 5.29999 3.27541 4.09999 4.18845 3.39999C5.10149 2.69999 6.52179 2.79999 7.02903 3.89999C7.23193 4.39999 7.13048 4.99999 6.92758 5.49999C6.82613 5.79999 6.52178 6.09999 6.92758 6.29999C7.53628 5.59999 8.04352 4.89999 8.65222 4.19999C7.94207 3.79999 7.63773 3.09999 7.13048 2.49999C6.52178 1.79999 5.81164 1.09999 4.79715 0.999991C2.86961 0.699991 1.14497 2.69999 0.942076 4.39999C0.840627 5.29999 1.14497 6.19999 1.75367 6.99999C2.26092 7.59999 2.97106 8.09999 3.37686 8.79999C3.57976 8.89999 5.20295 8.09999 5.50729 7.99999C5.71019 7.99999 5.60874 7.89999 5.60874 7.79999C5.60874 7.79999 5.10149 7.99999 5.60874 7.79999ZM31.4783 31.4C30.7682 30.9 28.8406 28.4 28.4348 27.9L28.2319 27.6L28.029 27.7C27.9276 27.8 28.1305 28.1 28.029 28.3C27.5218 29.1 24.2754 31.5 24.0725 31.7C23.6667 31.9 23.2609 31.6 23.058 31.9C23.5653 32.5 24.8841 34.2 25.087 34.2C25.3913 34.2 25.1884 33.7 25.1884 33.6C25.2899 33.4 26.9131 32 27.5218 31.5C27.7247 31.3 27.9276 31.8 28.1305 32C28.3334 32.3 28.4348 32.7 28.3334 33C28.2319 33.2 27.8261 33.6 28.1305 33.8C28.5363 33.3 29.6522 32 29.8551 31.8C30.058 31.6 29.4493 31.8 29.5508 31.7C29.3479 31.8 29.0435 31.9 28.8406 31.7C28.7392 31.7 28.1305 31 28.2319 30.9C28.5363 30.7 28.8406 30.3 29.2464 30.2C29.8551 30.1 30.2609 31.2 30.3624 31.6C30.4638 32 30.4638 32.4 30.2609 32.7C30.1595 33 29.9566 33.2 30.2609 33.3L31.6812 31.4C31.6812 31.5 31.5798 31.5 31.4783 31.4C31.5798 31.5 31.3769 31.4 31.4783 31.4ZM22.145 22.5C21.4348 22.5 20.7247 22.8 20.116 23.3C18.6957 24.5 18.4928 26.6 19.6087 28.1C20.9276 29.8 23.058 30 24.7827 28.8C26.2029 27.6 26.4058 25.5 25.2899 24C24.4783 23 23.2609 22.5 22.145 22.5ZM23.3624 23.9C24.2754 23.8 24.8841 24.7 24.4783 25.7C24.0725 26.7 23.058 27.7 22.0435 28.1C20.8261 28.6 20.0145 27.6 20.5218 26.4C20.9276 25.4 21.9421 24.4 22.9566 24C23.058 24 23.1595 23.9 23.3624 23.9ZM20.5218 19.3C20.8261 19.3 21.1305 19.7 21.3334 19.3L19.9131 17.6C19.5073 17.8 19.9131 18 19.8116 18.2C19.6087 18.5 18.087 18.7 17.6812 18.8C17.7827 18.4 18.2899 17.1 18.4928 17C18.8986 16.7 19.1015 17.3 19.3044 16.9L17.4783 14.8C17.2754 14.6 17.0725 14.1 16.8696 14.4C16.8696 14.4 16.8696 15.4 16.7682 15.5C16.6667 15.7 16.1595 17.9 15.5508 18.4C15.2464 18.7 14.029 19.7 13.7247 19.8C13.4203 19.9 13.2174 19.4 12.9131 19.8L14.5363 21.7C14.6377 21.8 14.9421 22.3 15.0435 22.3C15.3479 22.4 15.0435 21.7 15.145 21.6C15.2464 21.3 16.7682 19.8 17.4783 19.7C18.3913 19.5 19.5073 19.2 20.5218 19.3C20.7247 19.3 20.3189 19.3 20.5218 19.3ZM45.0725 26C45.174 26.4 45.2754 26.9 45.174 27.3C45.0725 27.9 44.5653 29.2 43.7537 28.8C42.9421 28.4 42.3334 27.7 41.6232 27.1C42.1305 26.5 42.6377 26 43.5508 26.3C43.7537 26.4 43.9566 26.3 43.7537 26.1C43.4493 25.9 41.7247 24.8 41.6232 24.9C41.4203 25.1 41.9276 25.5 41.7247 25.9C41.6232 26.2 41.3189 26.4 41.116 26.7C40.6087 26.3 39.8986 25.9 40.4058 25.2C40.8116 24.8 41.2174 24.4 41.8261 24.3C42.2319 24.2 43.0435 24.6 43.145 24.2C42.4348 23.9 41.7247 23.5 41.0145 23.2C41.116 23.7 38.7827 26.1 38.2754 26.7C38.174 26.8 37.8696 27.1 37.8696 27.2C37.8696 27.5 38.2754 27.3 38.2754 27.3C38.5798 27.2 42.7392 30.6 42.8406 30.9C42.9421 31.1 42.7392 31.3 42.8406 31.4C42.8406 31.4 42.9421 31.5 43.0435 31.5C43.3479 31.2 45.9856 27.6 46.5942 27.5C46.087 26.7 45.5798 25.9 45.0725 25.1C44.6667 25.3 44.9711 25.8 45.0725 26ZM41.0145 30.4C39.6957 29.5 37.3624 31.2 36.9566 31.4C36.2464 31.7 35.7392 31 36.145 30.4C36.4493 29.9 37.058 29.6 37.6667 29.6C37.8696 29.6 38.5798 29.7 38.5798 29.6C38.6812 29.5 38.6812 29.5 38.5798 29.4C37.9711 29 37.4638 28.6 36.8551 28.3C36.7537 29 35.9421 29.4 35.5363 29.9C35.029 30.5 34.5218 31.2 34.5218 31.9C34.5218 32.6 34.9276 33.3 35.6377 33.6C36.3479 34 37.1595 33.7 37.8696 33.3C38.2754 33 38.6812 32.7 39.087 32.5C39.6957 32.2 40.6087 32.5 40.4058 33.3C40.2029 34 39.4928 34.6 38.7827 34.8C38.3769 34.9 37.9711 34.9 37.5653 34.7C37.2609 34.6 36.9566 34.2 36.7537 34.6L39.087 36.2C39.1885 35.7 39.3913 35.5 39.7971 35.2C40.3044 34.8 40.7102 34.3 41.116 33.8C41.9276 32.9 42.2319 31.3 41.0145 30.4ZM58.8696 2.29999C58.8696 2.39999 58.8696 2.39999 58.8696 2.29999L57.9566 3.29999L57.145 4.29999C56.9421 4.49999 56.8406 4.59999 57.145 4.79999C57.6522 4.49999 60.6957 9.59999 60.4928 10.3C59.9856 10.5 55.9276 6.99999 55.8261 6.79999C55.8261 6.69999 56.029 6.09999 55.7247 6.19999C55.6232 6.19999 55.2174 6.79999 55.116 6.89999L54.5073 7.59999C54.7102 7.89999 54.8116 7.59999 55.116 7.59999C55.3189 7.69999 56.3334 8.49999 56.6377 8.69999C56.1305 8.69999 54.9131 8.79999 54.7102 8.79999C54.1015 8.89999 54.4058 8.39999 54 8.19999L52.4783 9.99999L51.5653 11C51.5653 11 51.5653 11 51.5653 11.1C51.7682 11.3 51.6667 11.2 51.9711 11.1C52.2754 11 56.3334 14.3 56.4348 14.5C56.6377 14.8 56.3334 15.1 56.7392 15.3L57.9566 13.9C58.058 13.8 58.058 13.8 57.9566 13.8C57.6522 13.6 57.6522 13.9 57.2464 13.9C56.9421 13.8 54.3044 11.7 53.3913 10.9L58.7682 10.7C58.9711 10.7 59.4783 11.3 59.4783 11.5C59.3769 11.7 59.174 11.9 59.4783 12C59.7827 11.6 60.087 11.3 60.3913 10.9L60.4928 10.7C60.5942 10.7 60.5942 10.6 60.5942 10.5L60.6957 10.4C61 10.1 61.9131 9.09999 61.8116 8.99999C61.5073 8.69999 61.4058 9.29999 61 8.99999C60.7971 8.79999 60.1884 7.79999 60.087 7.59999C59.8841 7.29999 60.4928 6.99999 60.6957 6.89999C61.2029 6.59999 62.8261 6.09999 63.029 7.09999C63.029 7.29999 62.8261 7.49999 62.9276 7.59999C62.9276 7.59999 63.029 7.79999 63.1305 7.69999L65.2609 5.09999C65.1595 4.99999 65.1595 4.99999 65.058 4.89999C64.5508 5.39999 59.4783 3.39999 59.174 3.09999C59.0725 2.89999 59.0725 2.29999 58.8696 2.29999ZM58.6667 4.89999C59.4783 5.19999 60.1884 5.49999 61 5.89999C60.7971 5.99999 60.5942 6.09999 60.3913 6.19999C60.1885 6.29999 59.9856 6.49999 59.7827 6.69999L58.6667 4.89999ZM51.9711 12.6C50.8551 12.5 49.7392 13 48.9276 13.9C47.7102 15.4 47.8116 17.6 49.3334 18.8C50.8551 20 53.087 19.7 54.3044 18.3C55.5218 16.8 55.4203 14.6 53.8986 13.4C53.3913 13 52.6812 12.7 51.9711 12.6ZM50.5508 14.2C51.1595 14.2 51.8696 14.6 52.2754 14.9C53.087 15.4 54.5073 16.6 53.7971 17.6C53.7971 17.5 53.8986 17.5 53.6957 17.7C52.8841 18.5 51.4638 17.8 50.7537 17.2C50.0435 16.7 48.7247 15.5 49.5363 14.5C49.8406 14.3 50.145 14.2 50.5508 14.2ZM47.4058 18.5C46.1884 18.4 44.9711 19 44.058 20.1C43.4493 20.9 42.7392 21.6 42.1305 22.4C42.3334 22.7 42.6377 22.3 42.9421 22.5C43.2464 22.7 47.1015 25.8 47.1015 26C47.2029 26.3 46.8986 26.4 47.2029 26.6C47.3044 26.7 50.145 23.2 50.4493 22.6C50.8551 21.5 50.5508 20.2 49.6377 19.4C49.7392 19.5 49.8406 19.5 49.6377 19.4C48.8261 18.8 48.116 18.5 47.4058 18.5ZM46.2899 20.1C46.3913 20.1 46.4928 20.1 46.5942 20.1C48.0145 20.5 50.0435 22.2 48.7247 23.7C48.5218 23.9 48.7247 23.7 48.3189 24.1C48.116 24.3 44.058 21.1 44.2609 20.9C44.6667 20.4 45.5798 20 46.2899 20.1Z" fill="white"/>
</svg>
